HIERARCHY
ROOT pelvis
{
  OFFSET 0 100 0
  CHANNELS 6 Xposition Yposition Zposition Zrotation Xrotation Yrotation
  JOINT pelvis_right_femur
  {
    OFFSET -10.78128 -3.44521 -0.5502486
    CHANNELS 3 Zrotation Xrotation Yrotation
    JOINT right_femur_tibia
    {
      OFFSET -0.8047443 -44.0398 -0.1307829
      CHANNELS 3 Zrotation Xrotation Yrotation
      JOINT right_tibia_foot
      {
        OFFSET 3.006224 -47.83518 -5
        CHANNELS 3 Zrotation Xrotation Yrotation
        End Site
        {
          OFFSET 0 -5 15
        }
      }
    }
  }
  JOINT pelvis_left_femur
  {
    OFFSET 10.78128 -3.44521 -0.5502486
    CHANNELS 3 Zrotation Xrotation Yrotation
    JOINT left_femur_tibia
    {
      OFFSET 0.8047443 -44.0398 -0.1307829
      CHANNELS 3 Zrotation Xrotation Yrotation
      JOINT left_tibia_foot
      {
        OFFSET -4.370144 -48.10324 -4.275266
        CHANNELS 3 Zrotation Xrotation Yrotation
        End Site
        {
          OFFSET 0 -5 15
        }
      }
    }
  }
  JOINT pelvis_spine1
  {
    OFFSET 0 6.468898 -3.129235
    CHANNELS 3 Zrotation Xrotation Yrotation
    JOINT spine1
    {
      OFFSET 0 23.15396 4.99043
      CHANNELS 3 Zrotation Xrotation Yrotation
      JOINT spine2
      {
        OFFSET 0 20.79997 -5.064912
        CHANNELS 3 Zrotation Xrotation Yrotation
        JOINT neck
        {
          OFFSET 0 14.38658 9.616178
          CHANNELS 3 Zrotation Xrotation Yrotation
          End Site
          {
            OFFSET 0 20 0
          }
        }
      }
      JOINT right_manubrium
      {
        OFFSET -5.722621 16.35077 3.967754
        CHANNELS 3 Zrotation Xrotation Yrotation
        JOINT right_clavicle
        {
          OFFSET -13.16364 1.694482 -4.693211
          CHANNELS 3 Zrotation Xrotation Yrotation
          JOINT right_humerus
          {
            OFFSET -28.5034 -0.3100689 -2.792744
            CHANNELS 3 Zrotation Xrotation Yrotation
            JOINT right_radius
            {
              OFFSET -25.15693 0.02248979 -1.271978
              CHANNELS 3 Zrotation Xrotation Yrotation
              End Site
              {
                OFFSET -15 0 0
              }
            }
          }
        }
      }
      JOINT left_manubrium
      {
        OFFSET 5.722621 16.35077 3.967754
        CHANNELS 3 Zrotation Xrotation Yrotation
        JOINT left_clavicle
        {
          OFFSET 13.16364 1.694482 -4.693211
          CHANNELS 3 Zrotation Xrotation Yrotation
          JOINT left_humerus
          {
            OFFSET 29.39168 -1.063119 -2.237045
            CHANNELS 3 Zrotation Xrotation Yrotation
            JOINT left_radius
            {
              OFFSET 24.59957 -0.9528479 0.9047498
              CHANNELS 3 Zrotation Xrotation Yrotation
              End Site
              {
                OFFSET 15 -0 -0
              }
            }
          }
        }
      }
    }
  }
}
MOTION
Frames: 13
Frame Time: 0.0416666666667
0 103.5113 0 -0.1921897 -1.370219 0.04534243 0.2999646 2.160474 4.960228 -0 6.075763 -0 -12.10786 -12.14793 2.161753 -2.465776 -1.160145 -18.86674 -0 18.48064 -0 1.980685 -19.84265 19.93566 0.7490649 -10.39121 7.082093 -1.655403 14.45515 -6.763269 1.721073 21.399 4.304611 4.326597 -24.12 5.947654 11.64257 -21.27249 11.44237 84.56515 39.98965 -21.05318 -0 0 17.8443 -5.107189 5.524597 1.971434 7.600252 -25.05675 -6.631239 -102.3457 35.04836 27.45739 0 0 -14.83 9.589495 37.18999 8.798797
0.4092448 103.6531 0.4547635 -0.2043105 -1.433387 -0.1873332 0.02532326 2.421279 4.889409 -0 6.222543 -0 -11.66326 -12.62786 2.276109 -2.46098 -0.915312 -18.89039 -0 18.57493 -0 2.190322 -20.01791 20.09297 0.905799 -10.0421 7.25485 -1.743874 14.34685 -6.540627 1.676514 21.13276 4.519007 4.508486 -24.05839 5.860073 11.47975 -21.11913 11.41526 84.40319 39.81889 -20.92266 -0 0 17.70852 -5.288664 5.548983 2.119286 7.555824 -24.84922 -6.445878 -102.2459 34.68177 27.46811 0 0 -14.58634 9.703121 36.91922 8.783561
0.798536 103.4602 0.8738028 -0.2093982 -1.45613 -0.2762004 -0.2328318 2.529241 4.855807 -0 6.304299 -0 -11.12219 -13.36511 2.327349 -3.004144 -0.3474727 -18.71752 -0 18.21998 -0 2.470202 -20.32931 20.41752 0.9004241 -9.636585 7.347604 -1.84986 14.1173 -6.407133 1.674456 20.75618 4.705456 4.74622 -23.96588 5.733239 11.28585 -20.96462 11.45819 84.23277 39.63618 -20.70151 -0 0 17.63943 -5.50287 5.575738 2.300307 7.598592 -24.69577 -6.388477 -101.9581 34.34323 27.41656 0 0 -14.16062 9.795434 36.61487 8.830975
1.23855 103.5127 1.505182 -0.2135008 -1.474495 -0.3492749 -0.5247905 2.759271 4.896601 -0 7.093509 -0 -10.72742 -13.91181 2.286324 -3.240016 0.1801921 -18.54436 -0 18.00424 -0 2.520162 -20.5987 20.37399 1.224195 -9.316705 7.574538 -2.116376 14.02213 -6.107483 1.536313 20.45749 4.952693 4.981592 -23.88509 5.515483 11.24713 -20.75467 11.41472 84.08539 39.41525 -20.60317 -0 0 17.48593 -5.749208 5.606327 2.465246 7.314668 -24.48051 -5.946192 -101.6472 33.96769 27.27926 0 0 -13.55669 9.829249 36.25182 9.007846
1.910431 103.6484 2.198456 -0.2323344 -1.569413 -0.6975915 -0.9005694 2.714589 5.050948 -0 8.219914 -0 -10.22342 -14.56881 2.05896 -3.261634 0.6603086 -18.41897 -0 17.98428 -0 2.364707 -20.85884 19.93932 1.558759 -9.072644 7.78146 -2.282252 13.92137 -5.870389 1.337559 20.17799 5.202463 5.23305 -23.78321 5.202031 11.33341 -20.58838 11.51709 83.74743 39.20678 -20.46261 -0 0 17.25285 -6.028071 5.646448 2.622003 7.033229 -24.18279 -5.681112 -101.4115 33.57973 27.21762 0 0 -13.04123 9.776712 35.8445 9.240471
2.603526 103.614 3.027313 -0.2414686 -1.611249 -0.8557348 -1.172894 2.231929 5.29831 -0 10.10898 -0 -9.680871 -15.34567 1.526105 -3.56762 1.470928 -18.19424 -0 17.58752 -0 2.260291 -21.20798 19.57914 1.568056 -8.400695 7.778905 -2.419028 13.94006 -5.826199 1.060151 19.46113 5.398906 5.434819 -23.81288 4.727726 11.42855 -20.54284 11.5631 83.33855 38.96795 -20.17386 -0 0 17.16112 -6.362461 5.683371 2.831624 7.037299 -23.88514 -5.367612 -101.1723 33.18246 27.13445 0 0 -12.69954 9.695775 35.39086 9.505666
3.352805 103.6405 3.861282 -0.2446471 -1.620928 -0.8965207 -1.403247 1.078562 5.810977 -0 13.4988 -0 -9.309492 -15.91941 0.7082471 -3.883559 2.397229 -18.0146 -0 16.90873 -0 2.165106 -21.55257 19.25009 1.524456 -8.03211 7.657981 -2.444085 13.79967 -5.873524 0.9597069 18.68239 5.645266 5.767648 -23.8194 4.454562 11.52842 -20.48426 11.59852 82.86056 38.70324 -19.85129 -0 0 17.11459 -6.740679 5.720296 3.05965 6.957928 -23.52581 -5.208639 -101.0352 32.75031 27.05038 0 0 -12.50871 9.56915 34.8862 9.81124
4.013591 103.3804 4.842561 -0.2432748 -1.606404 -0.8483293 -1.330798 -0.9454213 6.452492 -0 18.32238 -0 -8.986842 -16.31227 -0.513692 -4.11855 3.444053 -17.92753 -0 16.0895 -0 2.123247 -22.0141 18.94765 1.527751 -7.440813 7.328738 -2.40087 13.84008 -6.04805 1.11595 18.44012 5.816774 5.928269 -24.55816 4.801939 11.38691 -20.53329 11.47271 82.32458 38.40724 -19.33854 -0 0 17.31158 -7.185356 5.751385 3.364864 6.867933 -23.24477 -5.172792 -100.7008 32.36309 26.90939 0 0 -12.35946 9.399079 34.33 10.09549
4.760139 103.2398 5.986199 -0.2442148 -1.599648 -0.8262557 -1.060162 -3.858146 7.019892 -0 24.55713 -0 -8.710681 -16.14385 -2.165395 -4.432187 4.680832 -17.93645 -0 15.10798 -0 2.023895 -22.4201 18.66604 1.169872 -7.136245 6.83506 -2.566937 13.89392 -6.274161 1.04892 18.12343 5.933392 5.930634 -25.02782 4.851457 11.46843 -20.56522 11.31387 81.84502 38.07612 -18.89965 -0 0 17.47137 -7.641425 5.787084 3.660092 6.818744 -22.98115 -5.035871 -100.239 31.99835 26.82792 0 0 -12.16278 9.160153 33.71063 10.39879
5.200308 103.0287 7.275275 -0.2595775 -1.659 -1.043231 -0.5308453 -7.223758 6.936812 -0 31.13454 -0 -8.492548 -15.65671 -3.843636 -4.388915 5.973128 -17.9951 -0 13.96572 -0 1.9073 -22.9057 18.51643 1.040819 -6.441714 6.439343 -2.491352 14.02721 -6.543872 1.55275 18.29973 6.046494 6.033607 -26.28275 5.866569 11.30349 -20.69631 10.95325 81.4215 37.72181 -18.3714 -0 0 17.77115 -8.121716 5.818174 3.98657 6.63357 -22.87585 -5.02317 -99.57315 31.68622 26.67357 0 0 -11.95334 8.854582 33.02749 10.70837
5.592231 103.0255 8.751061 -0.265443 -1.667089 -1.074596 0.406307 -11.08997 6.671036 -0 36.42839 -0 -8.312748 -15.41352 -4.875142 -4.628579 7.675101 -17.73938 -0 12.79687 -0 1.72098 -23.24465 18.52499 0.6456375 -5.762043 5.998813 -2.409507 14.04168 -6.886731 1.821494 18.42167 6.158618 5.990372 -27.24597 6.653269 11.35254 -20.86982 10.57949 81.06292 37.33762 -17.9485 -0 0 17.97388 -8.578722 5.840239 4.281175 6.49608 -22.8633 -4.98212 -98.81861 31.40598 26.41994 0 0 -11.80978 8.511383 32.29578 11.0183
5.908478 103.076 10.45977 -0.2831703 -1.726113 -1.291528 1.391365 -15.07581 5.976258 -0 39.30262 -0 -7.990306 -14.98984 -5.40524 -4.721751 9.452693 -17.53532 -0 11.58397 -0 1.399908 -23.41618 18.49683 0.2233098 -4.941963 5.696492 -2.247651 13.82481 -7.18751 2.05895 18.46836 6.242895 5.928148 -27.98356 7.338393 11.23791 -21.10461 10.29892 80.69348 36.99735 -17.59354 -0 0 18.08656 -8.993638 5.861235 4.571825 6.495441 -22.90665 -4.897345 -98.08157 31.12519 26.01119 0 0 -11.93023 8.204641 31.53441 11.2561
6.184012 103.0496 12.2867 -0.3072308 -1.808285 -1.594148 2.106479 -19.06253 5.111454 -0 39.26334 -0 -7.504377 -14.19887 -5.538652 -4.80866 11.22475 -17.36093 -0 10.5049 -0 1.034825 -23.62551 18.37793 -0.1757196 -3.803407 5.52 -1.883162 13.57634 -7.429335 2.228539 18.29568 6.289935 5.80108 -28.59409 7.889704 11.09816 -20.9267 10.10165 80.83915 36.74401 -17.83442 -0 0 17.69843 -9.198648 5.927007 4.715868 6.614614 -23.08557 -4.83093 -97.40575 30.83248 25.33777 0 0 -12.49893 7.969077 30.76249 11.35386
